<svg xmlns="http://www.w3.org/2000/svg" viewBox="0 0 1600 900" role="img" aria-label="Sakura Field Day Poster">
  <defs>
    <linearGradient id="sky" x1="0" y1="0" x2="0" y2="1">
      <stop offset="0%" stop-color="#fffdfd"/>
      <stop offset="55%" stop-color="#fff3f7"/>
      <stop offset="100%" stop-color="#ffe7ef"/>
    </linearGradient>
    <radialGradient id="sun" cx="50%" cy="22%" r="40%">
      <stop offset="0%" stop-color="#ffffff" stop-opacity="0.96"/>
      <stop offset="55%" stop-color="#ffd8e6" stop-opacity="0.42"/>
      <stop offset="100%" stop-color="#ffd8e6" stop-opacity="0"/>
    </radialGradient>
    <radialGradient id="blush" cx="18%" cy="20%" r="36%">
      <stop offset="0%" stop-color="#ffc8db" stop-opacity="0.52"/>
      <stop offset="100%" stop-color="#ffc8db" stop-opacity="0"/>
    </radialGradient>
    <radialGradient id="lilac" cx="84%" cy="18%" r="28%">
      <stop offset="0%" stop-color="#e8d4ff" stop-opacity="0.44"/>
      <stop offset="100%" stop-color="#e8d4ff" stop-opacity="0"/>
    </radialGradient>
    <linearGradient id="field" x1="0" y1="0" x2="1" y2="1">
      <stop offset="0%" stop-color="#f7d7e3"/>
      <stop offset="45%" stop-color="#ffdfe9"/>
      <stop offset="100%" stop-color="#fbe8ef"/>
    </linearGradient>
  </defs>
  <rect width="1600" height="900" fill="url(#sky)"/>
  <rect width="1600" height="900" fill="url(#sun)"/>
  <rect width="1600" height="900" fill="url(#blush)"/>
  <rect width="1600" height="900" fill="url(#lilac)"/>
  <ellipse cx="780" cy="740" rx="760" ry="240" fill="url(#field)"/>
  <ellipse cx="280" cy="760" rx="320" ry="120" fill="#ffd6e4" fill-opacity="0.72"/>
  <ellipse cx="1260" cy="770" rx="360" ry="130" fill="#ffdce8" fill-opacity="0.68"/>
  <g fill="#ffffff" fill-opacity="0.58">
    <circle cx="258" cy="188" r="3"/>
    <circle cx="342" cy="234" r="4"/>
    <circle cx="468" cy="206" r="2.5"/>
    <circle cx="1108" cy="184" r="3.5"/>
    <circle cx="1214" cy="242" r="4"/>
    <circle cx="1328" cy="214" r="2.5"/>
  </g>
  <g fill="#ffbfd6" fill-opacity="0.55">
    <circle cx="216" cy="622" r="9"/>
    <circle cx="294" cy="664" r="7"/>
    <circle cx="386" cy="628" r="8"/>
    <circle cx="1138" cy="646" r="10"/>
    <circle cx="1268" cy="682" r="7"/>
    <circle cx="1366" cy="634" r="9"/>
  </g>
</svg>
